<svg width="16" height="16" viewBox="0 0 141 143" fill="none" xmlns="http://www.w3.org/2000/svg">
    <path d="M35.5552 28.7158H8.33068C6.98472 28.6942 5.65417 29.0068 4.45649 29.626C3.25882 30.2453 2.23086 31.1521 1.46336 32.2664C0.695859 33.3808 0.21243 34.6684 0.0557407 36.0155C-0.100948 37.3627 0.0739276 38.7281 0.564928 39.991L41.7323 142.601L57.9743 71.6988C58.4382 69.6587 58.2695 67.5243 57.4908 65.584L45.3537 35.3278C44.5608 33.367 43.2042 31.6897 41.4582 30.5115C39.7122 29.3333 37.6566 28.708 35.5552 28.7158Z" fill="#FAFAFA"/>
    <path d="M133.372 0.000871877H103.187C101.058 -0.0112723 98.9748 0.62746 97.2132 1.83277C95.4515 3.03807 94.0939 4.7533 93.3196 6.75207L41.7617 142.601H82.8107C84.9404 142.615 87.024 141.977 88.7859 140.771C90.5478 139.566 91.9051 137.85 92.6782 135.85L140.437 10.0531C140.854 8.91521 140.99 7.69212 140.832 6.4896C140.674 5.28708 140.228 4.14134 139.533 3.15148C138.837 2.16162 137.912 1.35744 136.839 0.808487C135.766 0.259533 134.576 -0.0176617 133.372 0.000871877Z" fill="#FAFAFA"/>
</svg>
